<svg xmlns="http://www.w3.org/2000/svg" width="17" height="21.047" viewBox="0 0 17 21.047">
<path d="M8.5 21.047l-.204-.09C4.274 19.163 0 14.298 0 8.813 0 3.297 4.322 0 8.5 0S17 3.297 17 8.814c0 5.485-4.274 10.35-8.296 12.143l-.204.09zM8.5 1C4.813 1 1 3.923 1 8.814c0 4.972 3.826 9.4 7.5 11.136 3.674-1.734 7.5-6.164 7.5-11.136C16 3.924 12.187 1 8.5 1z" fill="#fff"/><path d="M8.5 12.73c-2.277 0-4.13-1.866-4.13-4.16S6.223 4.41 8.5 4.41s4.13 1.867 4.13 4.16-1.853 4.16-4.13 4.16zm0-7.32c-1.726 0-3.13 1.418-3.13 3.16s1.404 3.162 3.13 3.162 3.13-1.418 3.13-3.16S10.226 5.41 8.5 5.41z" fill="#fff"/>
</svg>